# xmcd
#
# Track frame offsets:
#	150
#	25539
#	45910
#	92507
#	140716
#	172108
#
# Disc length: 3754 seconds
#
# Revision: 15
# Processed by: cddbd v1.5.1PL2 Copyright (c) Steve Scherf et al.
# Submitted via: EasyCDDAExtractor 9.0.0.1
#
DISCID=420ea806
DTITLE=Eric Clapton - Crossroads 2  (Live in the Seventies) CD 2
DYEAR=1996
DGENRE=Blues
TTITLE0=Layla
TTITLE1=Further On Up The Road
TTITLE2=I Shot The Sheriff
TTITLE3=Badge
TTITLE4=Driftin' Blues
TTITLE5=Eyesight To The Blind - Why Does Love Got To Be So Sad?
EXTD=YEAR: 1996
EXTT0=Providence Civic Center June 25, 1975
EXTT1=Providence Civic Center June 6, 1975
EXTT2=Nassau Coliseum June 28, 1975
EXTT3=Nassau Coliseum June 28, 1975
EXTT4=Providence Civic Center June 25, 1975
EXTT5=Providence Civic Center June 25, 1975
PLAYORDER=
